<?xml version="1.0" standalone="no"?>
<!DOCTYPE svg PUBLIC "-//W3C//DTD SVG 20010904//EN"
 "http://www.w3.org/TR/2001/REC-SVG-20010904/DTD/svg10.dtd">
<svg version="1.0" xmlns="http://www.w3.org/2000/svg"
 width="22.000000pt" height="22.000000pt" viewBox="0 0 22.000000 22.000000"
 preserveAspectRatio="xMidYMid meet">
<metadata>
Created by potrace 1.16, written by Peter Selinger 2001-2019
</metadata>
<g transform="translate(0.000000,22.000000) scale(0.100000,-0.100000)"
fill="#000000" stroke="none">
<path d="M35 185 c-43 -44 -47 -94 -12 -146 21 -32 26 -34 88 -37 58 -2 67 0
87 21 20 21 23 33 20 88 -3 59 -5 65 -37 86 -52 35 -102 31 -146 -12z m130 -8
c21 -18 25 -28 20 -50 -4 -15 -11 -27 -16 -27 -5 0 -9 -4 -9 -10 0 -5 7 -10
15 -10 21 0 19 -10 -7 -37 -29 -31 -87 -31 -115 0 -12 12 -24 39 -28 59 -6 33
-3 41 23 68 37 37 80 40 117 7z"/>
</g>
</svg>
