<?xml version="1.0" standalone="no"?>
<!DOCTYPE svg PUBLIC "-//W3C//DTD SVG 20010904//EN"
 "http://www.w3.org/TR/2001/REC-SVG-20010904/DTD/svg10.dtd">
<svg version="1.0" xmlns="http://www.w3.org/2000/svg"
 width="256.000000pt" height="256.000000pt" viewBox="0 0 256.000000 256.000000"
 preserveAspectRatio="xMidYMid meet">
<metadata>
Created by potrace 1.16, written by Peter Selinger 2001-2019
</metadata>
<g transform="translate(0.000000,256.000000) scale(0.100000,-0.100000)"
fill="#000000" stroke="none">
<path d="M1774 2381 c40 -59 65 -155 47 -181 -6 -8 -14 -22 -18 -30 -12 -25
-65 -69 -113 -91 -59 -29 -163 -35 -341 -20 -154 14 -231 30 -299 64 l-45 22
-23 -22 c-46 -43 -111 -32 -136 22 -15 31 -15 38 -2 70 21 50 72 71 121 51 23
-10 41 -27 50 -48 l14 -33 1 28 c0 64 -54 117 -120 117 -69 0 -120 -53 -120
-125 0 -29 -4 -35 -22 -35 -34 0 -95 31 -107 54 -7 15 -9 -25 -8 -144 l2 -165
293 -3 c183 -1 292 -6 292 -12 0 -6 -172 -10 -481 -10 -337 0 -493 -3 -520
-12 -51 -15 -114 -69 -142 -122 -22 -40 -22 -46 -22 -466 0 -419 0 -426 22
-466 28 -53 74 -99 127 -127 38 -20 55 -22 221 -22 l180 0 5 195 c6 216 13
248 80 324 65 73 46 70 526 76 l431 5 68 35 c52 27 76 47 102 84 l33 48 0 412
c0 392 -1 413 -21 456 -21 47 -61 94 -92 112 -12 6 -7 -8 17 -41z"/>
<path d="M2349 1795 c67 -77 66 -68 66 -505 l0 -395 -27 -52 c-28 -52 -63 -84
-128 -119 -33 -18 -69 -19 -522 -22 l-488 -3 0 -35 c0 -27 4 -34 20 -34 11 0
20 4 20 10 0 5 186 10 488 12 481 3 488 3 528 25 53 28 99 74 127 127 21 40
22 51 25 429 3 324 1 397 -12 440 -16 54 -70 128 -109 149 -16 8 -13 1 12 -27z"/>
<path d="M1838 448 c-5 -186 -15 -224 -70 -275 -55 -52 -67 -53 -505 -53 -406
0 -408 0 -458 24 -53 24 -108 79 -132 130 l-14 31 6 -30 c18 -85 86 -164 164
-190 42 -14 106 -15 477 -13 427 3 429 3 465 26 46 29 85 84 99 142 6 26 10
113 8 210 -3 142 -5 165 -19 168 -14 3 -17 -18 -21 -170z"/>
<path d="M1514 481 c-62 -38 -68 -147 -9 -185 33 -22 42 -20 20 4 -31 34 -25
87 13 121 45 41 85 39 127 -6 28 -29 32 -31 28 -12 -19 87 -103 124 -179 78z"/>
</g>
</svg>
