<?xml version="1.0" standalone="no"?>
<!DOCTYPE svg PUBLIC "-//W3C//DTD SVG 20010904//EN"
 "http://www.w3.org/TR/2001/REC-SVG-20010904/DTD/svg10.dtd">
<svg version="1.0" xmlns="http://www.w3.org/2000/svg"
 width="22.000000pt" height="22.000000pt" viewBox="0 0 22.000000 22.000000"
 preserveAspectRatio="xMidYMid meet">
<metadata>
Created by potrace 1.16, written by Peter Selinger 2001-2019
</metadata>
<g transform="translate(0.000000,22.000000) scale(0.100000,-0.100000)"
fill="#000000" stroke="none">
<path d="M35 185 c-43 -44 -47 -94 -12 -146 21 -32 26 -34 88 -37 58 -2 67 0
87 21 20 21 23 33 20 88 -3 59 -5 65 -37 86 -52 35 -102 31 -146 -12z m129 -6
c25 -19 36 -49 18 -49 -12 0 -9 -43 3 -52 5 -4 -1 -18 -15 -32 -51 -55 -130
-24 -145 56 -6 33 -3 41 23 68 36 36 77 39 116 9z"/>
</g>
</svg>
